<svg width="26" height="22" viewBox="0 0 26 22" fill="none" xmlns="http://www.w3.org/2000/svg">
<path d="M12.9433 22C12.7729 22.001 12.6041 21.9683 12.4464 21.9039C12.2887 21.8395 12.1453 21.7446 12.0244 21.6247L1.96884 11.5562C0.707511 10.2817 0 8.56094 0 6.76781C0 4.97467 0.707511 3.25395 1.96884 1.97944C3.24004 0.711835 4.962 0 6.7572 0C8.55241 0 10.2744 0.711835 11.5456 1.97944L12.9433 3.37713L14.3409 1.97944C15.6121 0.711835 17.3341 0 19.1293 0C20.9245 0 22.6465 0.711835 23.9177 1.97944C25.179 3.25395 25.8865 4.97467 25.8865 6.76781C25.8865 8.56094 25.179 10.2817 23.9177 11.5562L13.8621 21.6247C13.7412 21.7446 13.5978 21.8395 13.4401 21.9039C13.2824 21.9683 13.1136 22.001 12.9433 22Z" fill="white"/>
</svg>
