<svg width="26" height="22" viewBox="0 0 26 22" fill="none" xmlns="http://www.w3.org/2000/svg">
<path d="M10.8391 2.68722C10.8392 2.68733 10.8394 2.68744 10.8395 2.68755L12.2361 4.08423L12.9433 4.79134L13.6504 4.08423L15.047 2.68755C15.0472 2.68741 15.0473 2.68728 15.0475 2.68714C16.1312 1.60671 17.599 1 19.1293 1C20.6587 1 22.1257 1.606 23.2092 2.68523C24.2838 3.77227 24.8865 5.23919 24.8865 6.76781C24.8865 8.29678 24.2835 9.76404 23.2085 10.8512C23.2079 10.8517 23.2074 10.8522 23.2069 10.8527L13.1579 20.9147C13.1575 20.9151 13.1571 20.9154 13.1568 20.9158C13.1295 20.9425 13.0973 20.9637 13.062 20.9782C13.0261 20.9928 12.9877 21.0002 12.949 21L12.949 20.9999L12.9375 21C12.8988 21.0002 12.8604 20.9928 12.8245 20.9782L12.4464 21.9039L12.8245 20.9782C12.7892 20.9637 12.757 20.9425 12.7297 20.9158C12.7294 20.9154 12.729 20.9151 12.7286 20.9147L2.67961 10.8527C2.67909 10.8522 2.67857 10.8517 2.67805 10.8512C1.60299 9.76404 1 8.29678 1 6.76781C1 5.23919 1.60271 3.77226 2.67729 2.68521C3.76081 1.60599 5.22783 1 6.75721 1C8.28753 1 9.75542 1.60674 10.8391 2.68722Z" stroke="white" stroke-width="2"/>
</svg>
