<svg width="22" height="22" viewBox="0 0 22 22" fill="none" xmlns="http://www.w3.org/2000/svg">
<path d="M1 6L21 6" stroke="white" stroke-width="2" stroke-linejoin="round"/>
<path d="M6.5 2L8 5" stroke="white" stroke-width="2" stroke-linecap="square" stroke-linejoin="round"/>
<path d="M14.348 0.470001C14.0553 0.00166452 13.4383 -0.140709 12.97 0.152002C12.5017 0.444712 12.3593 1.06166 12.652 1.53L14.348 0.470001ZM15.152 5.53L15.682 6.378L17.378 5.318L16.848 4.47L15.152 5.53ZM12.652 1.53L15.152 5.53L16.848 4.47L14.348 0.470001L12.652 1.53Z" fill="white"/>
<path d="M1 14.7935V11V7.20648C1 5.71751 1.18312 4.74451 1.44425 4.05281C1.69693 3.38349 2.0433 2.92162 2.47346 2.47493C2.92101 2.0444 3.38332 1.69767 4.05289 1.44472C4.74472 1.18335 5.71767 1 7.20648 1H14.7913C16.2801 1 17.2531 1.18335 17.9449 1.44472C18.6145 1.69767 19.0768 2.04439 19.5243 2.47492C19.9545 2.92162 20.3009 3.38348 20.5535 4.05281C20.8147 4.74451 20.9978 5.71751 20.9978 7.20648V14.7935C20.9978 16.2831 20.8147 17.256 20.5536 17.9476C20.3009 18.6167 19.9546 19.0783 19.5243 19.5251C19.0768 19.9556 18.6145 20.3023 17.9449 20.5553C17.2531 20.8166 16.2801 21 14.7913 21H7.20648C5.71767 21 4.74472 20.8166 4.05289 20.5553C3.38332 20.3023 2.921 19.9556 2.47345 19.5251C2.04318 19.0783 1.69687 18.6167 1.44423 17.9476C1.18313 17.256 1 16.2831 1 14.7935Z" stroke="white" stroke-width="2" stroke-linecap="round" stroke-linejoin="round"/>
<path d="M8.99985 17.5C8.92479 17.5 8.85024 17.4821 8.78191 17.4471L8.75478 17.431C8.67947 17.3863 8.61517 17.3208 8.56978 17.2398C8.52435 17.1588 8.49993 17.0658 8.5 16.9703V16.97L8.5 11.0302L8.5 11.0297C8.49989 10.934 8.52432 10.8407 8.56984 10.7595C8.6153 10.6783 8.67973 10.6127 8.75522 10.5678C8.83058 10.523 8.91494 10.5 8.99993 10.5C9.08492 10.5 9.16927 10.523 9.24463 10.5679L9.24491 10.568L14.2441 13.5385L14.2444 13.5386C14.3199 13.5834 14.3844 13.649 14.4299 13.7301C14.4755 13.8113 14.5 13.9044 14.5 14.0001C14.5 14.0957 14.4755 14.1889 14.4299 14.2701C14.3844 14.3512 14.3199 14.4168 14.2444 14.4616L14.2441 14.4617L9.24491 17.4321L9.24491 17.4321C9.16943 17.477 9.08496 17.5 8.99985 17.5Z" stroke="white"/>
</svg>
