<svg width="22" height="23" viewBox="0 0 22 23" fill="none" xmlns="http://www.w3.org/2000/svg">
<path fill-rule="evenodd" clip-rule="evenodd" d="M11.823 0L14.797 5.002H9.217L6.567 0.031C6.773 0.018 6.986 0.00899995 7.209 0.00399995L7.55 0H11.823ZM14.15 0H14.448C17.508 0 18.916 0.754 20.088 1.887C20.8683 2.66306 21.4204 3.63855 21.684 4.707L21.754 5.002H17.125L14.15 0ZM4.483 0.377L6.95 5.002H0.244C0.446145 3.96757 0.916776 3.00448 1.60868 2.20938C2.30058 1.41427 3.18941 0.815108 4.186 0.472L4.483 0.377ZM14.218 13.211L9.673 10.587C9.54357 10.5122 9.3977 10.4705 9.24829 10.4655C9.09889 10.4606 8.95057 10.4925 8.81647 10.5586C8.68238 10.6247 8.56664 10.7228 8.47952 10.8442C8.3924 10.9657 8.33657 11.1068 8.317 11.255L8.309 11.375V16.623C8.30934 16.7722 8.34635 16.919 8.41677 17.0505C8.48719 17.182 8.58886 17.2942 8.71283 17.3772C8.8368 17.4601 8.97927 17.5114 9.1277 17.5263C9.27613 17.5413 9.42596 17.5196 9.564 17.463L9.673 17.41L14.218 14.786C14.3473 14.7113 14.4561 14.6059 14.535 14.4791C14.6138 14.3524 14.6602 14.2081 14.6701 14.0592C14.68 13.9102 14.6531 13.7611 14.5916 13.625C14.5302 13.489 14.4362 13.3701 14.318 13.279L14.218 13.211L9.673 10.587L14.218 13.211ZM0.018 7.002H21.982L21.997 7.362L22 7.551V14.45C22 17.511 21.245 18.919 20.112 20.09C18.961 21.204 17.612 21.946 14.782 21.999L14.448 22.002H7.551C4.491 22.002 3.084 21.247 1.911 20.113C0.797 18.963 0.057 17.615 0.00300002 14.783L0 14.45V7.551L0.00300002 7.362L0.018 7.002Z" fill="white"/>
</svg>
