<svg width="20" height="22" viewBox="0 0 20 22" fill="none" xmlns="http://www.w3.org/2000/svg">
<path d="M7.70215 13.1982H12.1031V20.8998H7.70215V13.1982Z" fill="white"/>
<path d="M19.1662 8.99527L10.6834 0.325447C10.5811 0.222324 10.4594 0.140473 10.3253 0.0846154C10.1913 0.0287581 10.0475 0 9.90221 0C9.75696 0 9.61316 0.0287581 9.47908 0.0846154C9.34501 0.140473 9.22332 0.222324 9.12104 0.325447L0.638261 9.00627C0.432999 9.21319 0.270888 9.45882 0.161342 9.72891C0.0517954 9.999 -0.00300339 10.2882 0.000126927 10.5796V19.7995C-0.000725558 20.3628 0.214422 20.9049 0.601265 21.3142C0.988108 21.7236 1.51719 21.969 2.07956 22H5.50128V12.0979C5.50128 11.8061 5.6172 11.5263 5.82353 11.3199C6.02987 11.1136 6.30971 10.9977 6.60151 10.9977H13.2029C13.4947 10.9977 13.7745 11.1136 13.9809 11.3199C14.1872 11.5263 14.3031 11.8061 14.3031 12.0979V22H17.7249C18.2872 21.969 18.8163 21.7236 19.2031 21.3142C19.59 20.9049 19.8051 20.3628 19.8043 19.7995V10.5796C19.8052 9.9887 19.5763 9.4206 19.1662 8.99527Z" fill="white"/>
</svg>
