<svg width="35" height="35" viewBox="0 0 35 35" fill="none" xmlns="http://www.w3.org/2000/svg">
<g clip-path="url(#clip0_230_383)">
<path fill-rule="evenodd" clip-rule="evenodd" d="M24.4506 17.4178C24.4506 22.2645 19.8914 25.5938 15.2683 24.0721C15.1868 24.0452 15.1128 24.0258 15.027 23.9989C15.0018 23.9914 14.927 23.9695 14.9018 23.9611L13.9173 23.4727C13.9021 23.4634 13.882 23.4508 13.8668 23.4415L13.713 23.3449C13.0799 22.9262 12.4923 22.3545 12.0139 21.7752L11.6087 21.1951C10.1492 18.8882 10.1559 15.5926 11.9761 13.2815C12.5578 12.5425 12.5225 12.5845 13.2388 12.0094C15.6592 10.0657 19.1634 10.1346 21.5342 11.8312C22.2488 12.3424 22.6456 12.7779 23.1702 13.4664L23.5343 14.0171C23.5427 14.0322 23.5544 14.0532 23.5628 14.0684C23.6015 14.1407 23.615 14.1768 23.6654 14.2819L23.9849 14.9637C24.2245 15.7027 24.454 16.4661 24.454 17.4178H24.4506ZM17.4996 26.2496C23.8731 26.2496 28.075 19.623 25.4679 13.8725C24.9021 12.624 24.0429 11.5798 22.9912 10.7105C19.5812 7.89076 14.4284 8.17492 11.3018 11.3024C11.0941 11.5101 11.0151 11.6547 10.815 11.8783C9.9289 12.8678 9.30256 14.1886 8.97805 15.522C8.52153 17.3968 8.77207 19.4641 9.51274 21.0875C9.74899 21.6046 9.99532 22.0199 10.2862 22.4327C10.4485 22.663 10.562 22.8127 10.7494 23.0372C11.3102 23.7072 11.0622 23.5063 11.8365 24.1536L13.8198 25.4425C14.7387 25.8805 16.1191 26.2487 17.4996 26.2487V26.2496Z" fill="white"/>
<path fill-rule="evenodd" clip-rule="evenodd" d="M16.6 5.31503H18.3991V0H16.6V5.31503Z" fill="white"/>
<path fill-rule="evenodd" clip-rule="evenodd" d="M0 18.3992H5.07038H5.31503V16.6001H0V18.3992Z" fill="white"/>
<path fill-rule="evenodd" clip-rule="evenodd" d="M29.6841 18.3992H35V16.6001H34.9176H29.6026H29.6841V18.3992Z" fill="white"/>
<path fill-rule="evenodd" clip-rule="evenodd" d="M16.6 35H18.3991V29.6841H16.6V35Z" fill="white"/>
<path fill-rule="evenodd" clip-rule="evenodd" d="M4.5794 29.2755C4.65507 29.389 4.58445 29.294 4.69374 29.4151C4.70803 29.4302 4.75847 29.484 4.77445 29.5017L5.41592 30.1659C5.6345 30.366 5.56304 30.3449 5.80517 30.4206L9.50518 26.7609C9.39588 26.6197 9.48668 26.7399 9.37907 26.6138C9.36982 26.6037 9.35217 26.5827 9.34208 26.5709L8.25839 25.5142C8.03224 25.6655 4.67776 28.9031 4.57856 29.2755H4.5794Z" fill="white"/>
<path fill-rule="evenodd" clip-rule="evenodd" d="M25.494 8.23924L25.7092 8.48557C25.721 8.49818 25.7378 8.515 25.7496 8.52677L26.1052 8.895C26.2002 8.99421 26.2607 9.06651 26.3961 9.1901L26.7399 9.48519C26.8887 9.38514 30.4492 5.9466 30.4198 5.72381C30.281 5.4842 30.3811 5.63217 30.1633 5.42788L29.8666 5.13194C29.6724 4.93101 29.521 4.6645 29.1931 4.57959L25.4931 8.23924H25.494Z" fill="white"/>
<path fill-rule="evenodd" clip-rule="evenodd" d="M4.5794 5.72464C4.5794 5.95668 5.68831 6.94873 5.88083 7.13537L8.25923 9.48602L9.50602 8.27959C9.3446 8.01561 9.08061 7.8172 8.8511 7.59609C8.83933 7.58516 8.82167 7.56834 8.81074 7.55741L7.91369 6.65784C7.81028 6.54687 7.8002 6.51828 7.67997 6.3989L7.13519 5.88186C7.12678 5.87345 7.03346 5.76836 7.02001 5.75323L6.31717 5.06468C5.67738 4.40051 5.84048 4.42153 5.17211 5.09158C5.07374 5.18995 4.5794 5.64394 4.5794 5.72549V5.72464Z" fill="white"/>
<path fill-rule="evenodd" clip-rule="evenodd" d="M25.494 26.7206L27.9993 29.2545C28.0918 29.347 28.1397 29.4033 28.2322 29.5L29.194 30.4206C29.5101 30.3365 29.6522 30.0852 29.8682 29.8682C30.0843 29.6522 30.3357 29.5101 30.4206 29.194L27.262 25.9833C27.0712 25.7966 26.9434 25.6495 26.7408 25.5142L25.494 26.7206Z" fill="white"/>
</g>
<defs>
<clipPath id="clip0_230_383">
<rect width="35" height="35" fill="white"/>
</clipPath>
</defs>
</svg>
