<svg width="27" height="29" viewBox="0 0 27 29" fill="none" xmlns="http://www.w3.org/2000/svg">
<g opacity="0.8">
<path d="M25.623 0.180022V0.195419L8.45827 3.28104C8.32408 3.30571 8.22749 3.40757 8.22749 3.531V22.62C6.97283 22.0695 5.05562 22.1695 3.2488 22.9983C0.73942 24.1498 -0.59883 26.2644 0.260045 27.7217C1.11885 29.1791 3.84915 29.4271 6.35883 28.2755C8.45308 27.3147 9.82798 25.6781 9.81849 24.3226V7.4413C9.81849 7.33488 9.90311 7.2432 10.0214 7.22194L25.3191 4.48131C25.4762 4.45361 25.6229 4.56152 25.6229 4.70041V18.7827C24.3683 18.232 22.451 18.3319 20.6442 19.1607C18.135 20.3122 16.7967 22.4271 17.6555 23.8841C18.514 25.3415 21.2446 25.5895 23.754 24.438C25.8485 23.4772 27.1217 21.8461 26.9877 20.485H27V0.254044C27 0.0935655 26.8357 -0.023685 26.658 0.00408148L25.6229 0.179957L25.623 0.180022Z" fill="#9872B6"/>
</g>
</svg>
