<svg width="18" height="22" viewBox="0 0 18 22" fill="none" xmlns="http://www.w3.org/2000/svg">
<path d="M8.55539 9.77778C9.52232 9.77778 10.4675 9.49105 11.2715 8.95385C12.0755 8.41666 12.7021 7.65312 13.0721 6.75979C13.4422 5.86646 13.539 4.88347 13.3503 3.93512C13.1617 2.98676 12.6961 2.11565 12.0124 1.43192C11.3286 0.748201 10.4575 0.28258 9.50917 0.0939408C8.56082 -0.094698 7.57782 0.00211826 6.6845 0.372147C5.79117 0.742175 5.02763 1.3688 4.49043 2.17277C3.95323 2.97674 3.6665 3.92196 3.6665 4.88889C3.6665 6.1855 4.18158 7.42901 5.09843 8.34586C6.01527 9.2627 7.25878 9.77778 8.55539 9.77778Z" fill="white"/>
<path d="M15.8889 22C16.213 22 16.5239 21.8712 16.7531 21.642C16.9823 21.4128 17.1111 21.1019 17.1111 20.7778C17.1111 18.5087 16.2097 16.3326 14.6052 14.7281C13.0008 13.1236 10.8246 12.2222 8.55556 12.2222C6.28648 12.2222 4.11034 13.1236 2.50586 14.7281C0.901386 16.3326 3.38118e-08 18.5087 0 20.7778C0 21.1019 0.12877 21.4128 0.357981 21.642C0.587192 21.8712 0.898069 22 1.22222 22H15.8889Z" fill="white"/>
</svg>
