<svg width="18" height="22" viewBox="0 0 18 22" fill="none" xmlns="http://www.w3.org/2000/svg">
<path d="M8.55539 9.77778C9.52232 9.77778 10.4675 9.49105 11.2715 8.95385C12.0755 8.41666 12.7021 7.65312 13.0721 6.75979C13.4422 5.86646 13.539 4.88347 13.3503 3.93512C13.1617 2.98676 12.6961 2.11565 12.0124 1.43192C11.3286 0.748201 10.4575 0.28258 9.50917 0.0939408C8.56082 -0.094698 7.57782 0.00211826 6.6845 0.372147C5.79117 0.742175 5.02763 1.3688 4.49043 2.17277C3.95323 2.97674 3.6665 3.92196 3.6665 4.88889C3.6665 6.1855 4.18158 7.42901 5.09843 8.34586C6.01527 9.2627 7.25878 9.77778 8.55539 9.77778ZM8.55539 2.44445C9.03886 2.44445 9.51147 2.58781 9.91345 2.85641C10.3154 3.12501 10.6288 3.50678 10.8138 3.95344C10.9988 4.40011 11.0472 4.8916 10.9529 5.36578C10.8585 5.83995 10.6257 6.27551 10.2839 6.61737C9.94201 6.95924 9.50646 7.19205 9.03228 7.28637C8.5581 7.38069 8.06661 7.33228 7.61994 7.14726C7.17328 6.96225 6.79151 6.64894 6.52291 6.24695C6.25431 5.84496 6.11095 5.37236 6.11095 4.88889C6.11095 4.24058 6.36849 3.61883 6.82691 3.16041C7.28533 2.70199 7.90709 2.44445 8.55539 2.44445Z" fill="white"/>
<path d="M8.55556 12.2222C6.28648 12.2222 4.11034 13.1236 2.50586 14.7281C0.901386 16.3326 0 18.5087 0 20.7778C0 21.1019 0.12877 21.4128 0.357981 21.642C0.587192 21.8712 0.898069 22 1.22222 22C1.54638 22 1.85725 21.8712 2.08646 21.642C2.31567 21.4128 2.44444 21.1019 2.44444 20.7778C2.44444 19.157 3.08829 17.6026 4.23435 16.4566C5.3804 15.3105 6.93479 14.6667 8.55556 14.6667C10.1763 14.6667 11.7307 15.3105 12.8768 16.4566C14.0228 17.6026 14.6667 19.157 14.6667 20.7778C14.6667 21.1019 14.7954 21.4128 15.0246 21.642C15.2539 21.8712 15.5647 22 15.8889 22C16.213 22 16.5239 21.8712 16.7531 21.642C16.9823 21.4128 17.1111 21.1019 17.1111 20.7778C17.1111 18.5087 16.2097 16.3326 14.6052 14.7281C13.0008 13.1236 10.8246 12.2222 8.55556 12.2222Z" fill="white"/>
</svg>
